<svg version="1.1" viewBox="0.0 0.0 278.21522309711287 136.11286089238845" fill="none" stroke="none" stroke-linecap="square" stroke-miterlimit="10" xmlns:xlink="http://www.w3.org/1999/xlink" xmlns="http://www.w3.org/2000/svg"><clipPath id="p.0"><path d="m0 0l278.2152 0l0 136.11285l-278.2152 0l0 -136.11285z" clip-rule="nonzero"/></clipPath><g clip-path="url(#p.0)"><path fill="#000000" fill-opacity="0.0" d="m0 0l278.2152 0l0 136.11285l-278.2152 0z" fill-rule="evenodd"/><defs><radialGradient id="p.1" gradientUnits="userSpaceOnUse" gradientTransform="matrix(13.877216606655367 0.0 0.0 13.877216606655367 0.0 0.0)" spreadMethod="pad" cx="3.4009241166767454" cy="4.633237881323798" fx="3.4009241166767454" fy="4.633237881323798" r="13.877216339111328"><stop offset="0.0" stop-color="#999999"/><stop offset="0.5" stop-color="#000000"/><stop offset="1.0" stop-color="#000000"/></radialGradient></defs><path fill="url(#p.1)" d="m47.195362 64.29645l91.79527 -58.141735l91.79529 58.141735z" fill-rule="evenodd"/><path stroke="#ffffff" stroke-width="1.0" stroke-linejoin="round" stroke-linecap="butt" d="m47.195362 64.29645l91.79527 -58.141735l91.79529 58.141735z" fill-rule="evenodd"/><defs><radialGradient id="p.2" gradientUnits="userSpaceOnUse" gradientTransform="matrix(11.657043685552381 0.0 0.0 11.657043685552381 0.0 0.0)" spreadMethod="pad" cx="11.993469342168563" cy="7.33969271653427" fx="11.993469342168563" fy="7.33969271653427" r="11.65704345703125"><stop offset="0.0" stop-color="#434343"/><stop offset="0.5" stop-color="#000000"/><stop offset="1.0" stop-color="#000000"/></radialGradient></defs><path fill="url(#p.2)" d="m11.950129 85.55912l0 0c0 -25.4138 57.244095 -46.01575 127.85827 -46.01575l0 0c70.61417 0 127.85826 20.601952 127.85826 46.01575l0 0c0 25.413795 -57.244095 46.01574 -127.85826 46.01574l0 0c-70.614174 0 -127.85827 -20.601944 -127.85827 -46.01574z" fill-rule="evenodd"/><defs><linearGradient id="p.3" gradientUnits="userSpaceOnUse" gradientTransform="matrix(10.698488043059184 0.0 0.0 10.698488043059184 0.0 0.0)" spreadMethod="pad" x1="7.718763498821532" y1="11.942071425001522" x2="18.417251541880713" y2="11.942071425001522"><stop offset="0.0" stop-color="#bfbfbf"/><stop offset="0.5" stop-color="#ffffff"/><stop offset="1.0" stop-color="#d9d9d9"/></linearGradient></defs><path fill="url(#p.3)" d="m94.139336 58.406826l91.33813 0c3.0657043 0 6.0058594 1.2178497 8.173645 3.3856354c2.1677856 2.1677856 3.3856354 5.107937 3.3856354 8.173649l0 57.795044c0 5.264282E-4 -4.272461E-4 9.536743E-4 -9.460449E-4 9.536743E-4l-114.45574 -9.536743E-4l0 0c-5.264282E-4 0 -9.536743E-4 -4.272461E-4 -9.536743E-4 -9.536743E-4l9.536743E-4 -57.79409l0 0c0 -6.384018 5.1752625 -11.559284 11.55928 -11.559284z" fill-rule="evenodd"/><defs><linearGradient id="p.4" gradientUnits="userSpaceOnUse" gradientTransform="matrix(16.34990985961473 0.0 0.0 16.34990985961473 0.0 0.0)" spreadMethod="pad" x1="-3.0600494055786447" y1="5.233035893403656" x2="8.501061720902003" y2="16.794189033929573"><stop offset="0.0" stop-color="#ff9900"/><stop offset="1.0" stop-color="#b45f06"/></linearGradient></defs><path fill="url(#p.4)" d="m-3.727034E-5 85.55985l0 0c0 -27.631638 62.228897 -50.031498 138.99213 -50.031498l0 0c76.76323 0 138.99213 22.39986 138.99213 50.031498l0 0c0 27.63163 -62.228897 50.031487 -138.99213 50.031487l0 0c-76.76324 0 -138.99213 -22.399857 -138.99213 -50.031487zm12.665974 0l0 0c0 20.636406 56.558147 37.365517 126.32616 37.365517c69.768005 0 126.32614 -16.72911 126.32614 -37.365517l0 0c0 -20.636414 -56.558136 -37.36553 -126.32614 -37.36553l0 0c-69.76801 0 -126.32616 16.729115 -126.32616 37.36553z" fill-rule="evenodd"/><defs><linearGradient id="p.5" gradientUnits="userSpaceOnUse" gradientTransform="matrix(9.545628850725475 0.0 0.0 9.545628850725475 0.0 0.0)" spreadMethod="pad" x1="1.3887290984904468" y1="7.813587511842332E-6" x2="1.3886945941562918" y2="9.545636664250624"><stop offset="0.0" stop-color="#b7b7b7"/><stop offset="0.5" stop-color="#ffffff"/><stop offset="1.0" stop-color="#666666"/></linearGradient></defs><path fill="url(#p.5)" d="m13.256293 45.560047l0 0c0 -25.161573 56.65889 -45.559055 126.551186 -45.559055l0 0c69.89229 0 126.55116 20.397484 126.55116 45.559055l0 0c0 25.161572 -56.658875 45.559055 -126.55116 45.559055l0 0c-69.892296 0 -126.551186 -20.397484 -126.551186 -45.559055z" fill-rule="evenodd"/><defs><linearGradient id="p.6" gradientUnits="userSpaceOnUse" gradientTransform="matrix(14.31333214336616 0.0 0.0 14.31333214336616 0.0 0.0)" spreadMethod="pad" x1="-0.41045214242343975" y1="3.155002799141497" x2="9.710583968577325" y2="13.27607512800752"><stop offset="0.0" stop-color="#ff9900"/><stop offset="0.23" stop-color="#b45f06"/><stop offset="0.34" stop-color="#b45f06"/><stop offset="0.45" stop-color="#ff9900"/><stop offset="0.54" stop-color="#ff9900"/><stop offset="0.68" stop-color="#b45f06"/><stop offset="0.83" stop-color="#b45f06"/><stop offset="1.0" stop-color="#ff9900"/></linearGradient></defs><path fill="url(#p.6)" d="m32.47152 45.15874l0 0c0 -21.178162 47.690483 -38.346455 106.51969 -38.346455l0 0c58.829193 0 106.519684 17.168293 106.519684 38.346455l0 0c0 21.178165 -47.69049 38.346455 -106.519684 38.346455l0 0c-58.82921 0 -106.51969 -17.16829 -106.51969 -38.346455z" fill-rule="evenodd"/></g></svg>