<svg version="1.1" viewBox="0.0 0.0 279.00787401574803 131.0" fill="none" stroke="none" stroke-linecap="square" stroke-miterlimit="10" xmlns:xlink="http://www.w3.org/1999/xlink" xmlns="http://www.w3.org/2000/svg"><clipPath id="p.0"><path d="m0 0l279.00787 0l0 131.0l-279.00787 0l0 -131.0z" clip-rule="nonzero"/></clipPath><g clip-path="url(#p.0)"><path fill="#000000" fill-opacity="0.0" d="m0 0l279.00787 0l0 131.0l-279.00787 0z" fill-rule="evenodd"/><defs><radialGradient id="p.1" gradientUnits="userSpaceOnUse" gradientTransform="matrix(13.877216606655367 0.0 0.0 13.877216606655367 0.0 0.0)" spreadMethod="pad" cx="3.448207948701673" cy="4.252697601187183" fx="3.448207948701673" fy="4.252697601187183" r="13.877216339111328"><stop offset="0.0" stop-color="#999999"/><stop offset="0.5" stop-color="#000000"/><stop offset="1.0" stop-color="#000000"/></radialGradient></defs><path fill="url(#p.1)" d="m47.85153 59.015606l91.79527 -58.14173l91.79527 58.14173z" fill-rule="evenodd"/><path stroke="#ffffff" stroke-width="1.0" stroke-linejoin="round" stroke-linecap="butt" d="m47.85153 59.015606l91.79527 -58.14173l91.79527 58.14173z" fill-rule="evenodd"/><defs><linearGradient id="p.2" gradientUnits="userSpaceOnUse" gradientTransform="matrix(16.349909637910535 0.0 0.0 16.349909637910535 0.0 0.0)" spreadMethod="pad" x1="-3.0199166271652778" y1="4.910047029747649" x2="8.541194029008315" y2="16.471200327042393"><stop offset="0.0" stop-color="#ffff00"/><stop offset="1.0" stop-color="#7f6000"/></linearGradient></defs><path fill="url(#p.2)" d="m0.65613073 80.27901l0 0c0 -27.63163 62.228893 -50.031494 138.99213 -50.031494l0 0c76.76323 0 138.99213 22.399864 138.99213 50.031494l0 0c0 27.631638 -62.228897 50.031494 -138.99213 50.031494l0 0c-76.76323 0 -138.99213 -22.399857 -138.99213 -50.031494z" fill-rule="evenodd"/><defs><linearGradient id="p.3" gradientUnits="userSpaceOnUse" gradientTransform="matrix(9.545628864034054 0.0 0.0 9.545628864034054 0.0 0.0)" spreadMethod="pad" x1="1.4574692485493832" y1="3.6371867093356847" x2="1.4574347442152762" y2="13.182815573307376"><stop offset="0.0" stop-color="#b7b7b7"/><stop offset="0.5" stop-color="#ffffff"/><stop offset="1.0" stop-color="#666666"/></linearGradient></defs><path fill="url(#p.3)" d="m13.912461 80.279205l0 0c0 -25.161572 56.658897 -45.559055 126.55118 -45.559055l0 0c69.89229 0 126.55119 20.397484 126.55119 45.559055l0 0c0 25.161575 -56.658905 45.55906 -126.55119 45.55906l0 0c-69.89228 0 -126.55118 -20.397484 -126.55118 -45.55906z" fill-rule="evenodd"/><defs><linearGradient id="p.4" gradientUnits="userSpaceOnUse" gradientTransform="matrix(14.31333242827272 0.0 0.0 14.31333242827272 0.0 0.0)" spreadMethod="pad" x1="-0.36460909241022693" y1="5.669635305658974" x2="9.756426906668908" y2="15.79070814936421"><stop offset="0.0" stop-color="#ffff00"/><stop offset="0.23" stop-color="#bf9000"/><stop offset="0.34" stop-color="#bf9000"/><stop offset="0.45" stop-color="#ffff00"/><stop offset="0.54" stop-color="#ffff00"/><stop offset="0.68" stop-color="#bf9000"/><stop offset="0.83" stop-color="#bf9000"/><stop offset="1.0" stop-color="#ffff00"/></linearGradient></defs><path fill="url(#p.4)" d="m33.127686 81.15151l0 0c0 -21.178162 47.69049 -38.346455 106.519684 -38.346455l0 0c58.829193 0 106.519684 17.168293 106.519684 38.346455l0 0c0 21.178162 -47.69049 38.34646 -106.519684 38.34646l0 0c-58.829193 0 -106.519684 -17.168297 -106.519684 -38.34646z" fill-rule="evenodd"/><defs><radialGradient id="p.5" gradientUnits="userSpaceOnUse" gradientTransform="matrix(10.640099950287109 0.0 0.0 10.640099950287109 0.0 0.0)" spreadMethod="pad" cx="13.124629684496066" cy="7.483257338630254" fx="13.124629684496066" fy="7.483257338630254" r="10.64009952545166"><stop offset="0.0" stop-color="#434343"/><stop offset="0.5" stop-color="#000000"/><stop offset="1.0" stop-color="#000000"/></radialGradient></defs><path fill="url(#p.5)" d="m33.127686 79.622604l0 0c0 -21.178162 47.69049 -38.346455 106.519684 -38.346455l0 0c58.829193 0 106.519684 17.168293 106.519684 38.346455l0 0c0 21.178162 -47.69049 38.34646 -106.519684 38.34646l0 0c-58.829193 0 -106.519684 -17.168297 -106.519684 -38.34646z" fill-rule="evenodd"/></g></svg>