<svg version="1.1" viewBox="0.0 0.0 278.6089238845144 136.22834645669292" fill="none" stroke="none" stroke-linecap="square" stroke-miterlimit="10" xmlns:xlink="http://www.w3.org/1999/xlink" xmlns="http://www.w3.org/2000/svg"><clipPath id="p.0"><path d="m0 0l278.60892 0l0 136.22835l-278.60892 0l0 -136.22835z" clip-rule="nonzero"/></clipPath><g clip-path="url(#p.0)"><path fill="#000000" fill-opacity="0.0" d="m0 0l278.60892 0l0 136.22835l-278.60892 0z" fill-rule="evenodd"/><defs><linearGradient id="p.1" gradientUnits="userSpaceOnUse" gradientTransform="matrix(16.672859642677842 0.0 0.0 16.672859642677842 0.0 0.0)" spreadMethod="pad" x1="0.011230031310750946" y1="8.146175811622461" x2="16.68408967398859" y2="8.146175811622461"><stop offset="0.0" stop-color="#bfbfbf"/><stop offset="0.5" stop-color="#ffffff"/><stop offset="1.0" stop-color="#d9d9d9"/></linearGradient></defs><path fill="url(#p.1)" d="m0.18723674 85.78855l0 0c0 -27.631634 62.228893 -50.031498 138.99213 -50.031498l0 0c76.76323 0 138.99211 22.399864 138.99211 50.031498l0 0c0 27.63163 -62.22888 50.0315 -138.99211 50.0315l0 0c-76.76324 0 -138.99213 -22.399872 -138.99213 -50.0315z" fill-rule="evenodd"/><path fill="#000000" d="m0.18723674 73.15534l0 0c0 -27.63163 62.228893 -50.031494 138.99213 -50.031494l0 0c76.76323 0 138.99211 22.399862 138.99211 50.031494l0 0c0 27.631638 -62.22888 50.0315 -138.99211 50.0315l0 0c-76.76324 0 -138.99213 -22.399864 -138.99213 -50.0315z" fill-rule="evenodd"/><defs><linearGradient id="p.2" gradientUnits="userSpaceOnUse" gradientTransform="matrix(16.349909416205122 0.0 0.0 16.349909416205122 0.0 0.0)" spreadMethod="pad" x1="-3.048595644317804" y1="3.993419434426081" x2="8.512515482162561" y2="15.554571947877537"><stop offset="0.0" stop-color="#ff0000"/><stop offset="0.23" stop-color="#990000"/><stop offset="0.34" stop-color="#990000"/><stop offset="0.45" stop-color="#ff0000"/><stop offset="0.54" stop-color="#ff0000"/><stop offset="0.68" stop-color="#990000"/><stop offset="0.83" stop-color="#990000"/><stop offset="1.0" stop-color="#ff0000"/></linearGradient></defs><path fill="url(#p.2)" d="m0.18723674 65.29222l0 0c0 -27.63163 62.228893 -50.031494 138.99213 -50.031494l0 0c76.76323 0 138.99211 22.399864 138.99211 50.031494l0 0c0 27.631638 -62.22888 50.0315 -138.99211 50.0315l0 0c-76.76324 0 -138.99213 -22.399864 -138.99213 -50.0315z" fill-rule="evenodd"/><path fill="#000000" d="m73.91952 31.727787c0 -12.489462 29.217827 -22.614174 65.25985 -22.614174l0 0c36.042007 0 65.25984 10.124711 65.25984 22.614174l0 0c0 12.489464 -29.217834 22.614174 -65.25984 22.614174l0 0c-36.042023 0 -65.25985 -10.12471 -65.25985 -22.614174z" fill-rule="evenodd"/><defs><linearGradient id="p.3" gradientUnits="userSpaceOnUse" gradientTransform="matrix(10.285683039572586 0.0 0.0 10.285683039572586 0.0 0.0)" spreadMethod="pad" x1="8.38852619595405" y1="4.180182499191481" x2="18.67420923552664" y2="4.180182499191481"><stop offset="0.0" stop-color="#bfbfbf"/><stop offset="0.5" stop-color="#ffffff"/><stop offset="1.0" stop-color="#d9d9d9"/></linearGradient></defs><path fill="url(#p.3)" d="m86.28172 24.665323c0 -10.123772 23.683083 -18.33071 52.897644 -18.33071l0 0c29.214554 0 52.89763 8.206938 52.89763 18.33071l0 0c0 10.12377 -23.683075 18.33071 -52.89763 18.33071l0 0c-29.214561 0 -52.897644 -8.20694 -52.897644 -18.33071z" fill-rule="evenodd"/><defs><linearGradient id="p.4" gradientUnits="userSpaceOnUse" gradientTransform="matrix(6.054898799620176 0.0 0.0 6.054898799620176 0.0 0.0)" spreadMethod="pad" x1="14.24990317363312" y1="0.03096873815574124" x2="14.249881161023968" y2="6.085867537735903"><stop offset="0.0" stop-color="#cccccc"/><stop offset="0.5" stop-color="#ffffff"/><stop offset="1.0" stop-color="#666666"/></linearGradient></defs><path fill="url(#p.4)" d="m86.28172 18.518604c0 -10.123771 23.683083 -18.33071 52.897644 -18.33071l0 0c29.214554 0 52.89763 8.206938 52.89763 18.33071l0 0c0 10.123772 -23.683075 18.330708 -52.89763 18.330708l0 0c-29.214561 0 -52.897644 -8.206936 -52.897644 -18.330708z" fill-rule="evenodd"/></g></svg>